<?xml version="1.0" encoding="utf-8"?>
<!-- Generator: Adobe Illustrator 28.0.0, SVG Export Plug-In . SVG Version: 6.00 Build 0)  -->
<svg version="1.1" id="Layer_1" xmlns="http://www.w3.org/2000/svg" xmlns:xlink="http://www.w3.org/1999/xlink" x="0px" y="0px"
	 viewBox="0 0 1500 211" style="enable-background:new 0 0 1500 211;" xml:space="preserve">
<style type="text/css">
	.st0{fill:#D8D8D8;}
	.st1{fill:url(#SVGID_1_);}
	.st2{fill:url(#SVGID_00000016053176893612079070000000964133490816985755_);}
	.st3{fill:url(#SVGID_00000042000792641150053100000009686414913504492458_);}
	.st4{fill:#404147;}
</style>
<path class="st0" d="M342.3,1.7h3c0,0,17.4,12.7,28.9,51.9c12.5,42.7,18.5,51.9,18.5,51.9h-60.8h-3c0,0-7.1-12.7-18.5-51.9
	c-12.5-42.7-28.9-51.9-28.9-51.9S342.3,1.7,342.3,1.7z"/>
<path class="st0" d="M111.3,1.7h3c0,0,17.4,25.4,28.9,103.9C155.6,191,172,209.4,172,209.4h-60.8h-3c0,0-17.4-25.4-28.9-103.9
	C66.9,20.1,50.5,1.7,50.5,1.7H111.3z"/>
<path class="st0" d="M226.7,1.7h3c0,0,17.4,25.4,28.9,103.9c12.5,85.4,28.9,103.9,28.9,103.9h-60.8h-3c0,0-17.4-25.4-28.9-103.9
	C182.4,20.1,166,1.7,166,1.7H226.7z"/>
<linearGradient id="SVGID_1_" gradientUnits="userSpaceOnUse" x1="124.9845" y1="132.4895" x2="242.9478" y2="60.3129">
	<stop  offset="0" style="stop-color:#387AB9"/>
	<stop  offset="1" style="stop-color:#00BBF2"/>
</linearGradient>
<path class="st1" d="M169,1.7h-3c0,0-17.4,25.4-28.9,103.9c-12.5,85.4-28.9,103.9-28.9,103.9H169h3c0,0,17.4-25.4,28.9-103.9
	C213.4,20.1,229.8,1.7,229.8,1.7H169z"/>
<linearGradient id="SVGID_00000062913393612394233530000001168473381964741026_" gradientUnits="userSpaceOnUse" x1="254.9249" y1="135.9037" x2="339.6566" y2="48.8244">
	<stop  offset="0" style="stop-color:#387AB9"/>
	<stop  offset="1" style="stop-color:#00BBF2"/>
</linearGradient>
<path style="fill:url(#SVGID_00000062913393612394233530000001168473381964741026_);" d="M284.5,1.7h-3c0,0-17.4,25.4-28.9,103.9
	c-12.5,85.4-28.9,103.9-28.9,103.9h60.8h3c0,0,17.4-25.4,28.9-103.9C328.8,20.1,345.2,1.7,345.2,1.7H284.5z"/>
<linearGradient id="SVGID_00000100365608145905996450000003036777622650237875_" gradientUnits="userSpaceOnUse" x1="16.1147" y1="76.9184" x2="113.7709" y2="23.8375">
	<stop  offset="0" style="stop-color:#387AB9"/>
	<stop  offset="1" style="stop-color:#00BBF2"/>
</linearGradient>
<path style="fill:url(#SVGID_00000100365608145905996450000003036777622650237875_);" d="M53.8,1.7h-3c0,0-17.4,12.7-28.9,51.9
	C9.5,96.3,3.4,105.5,3.4,105.5h60.8h3c0,0,7.1-12.7,18.5-51.9c12.5-42.7,28.9-51.9,28.9-51.9S53.8,1.7,53.8,1.7z"/>
<g>
	<path class="st4" d="M669,21.3h23.8l-67.3,167.3h-5.2L565.7,53.1l-55,135.5h-5.1L438.4,21.3h24l45.9,114.8l46.2-114.8h22.5
		l46.4,114.8L669,21.3z"/>
	<path class="st4" d="M738.8,77.9c16.7,0,30.6,5.4,41.6,16.2c11,10.8,16.6,24.3,16.6,40.6c0,15.8-5.6,29-16.8,39.4
		c-11.2,10.5-25.3,15.7-42.3,15.7c-16.5,0-30.2-5.3-41.3-15.9S680,150,680,134.1c0-16.1,5.6-29.4,16.8-40.1
		C707.9,83.3,721.9,77.9,738.8,77.9z M737.6,97.5c-10.4,0-19,3.4-25.6,10.2c-6.7,6.8-10,15.5-10,26.1c0,10.5,3.4,19.1,10.2,25.7
		s15.6,9.9,26.3,9.9c10.7,0,19.4-3.4,26.2-10.1s10.2-15.3,10.2-25.8c0-10.4-3.5-19-10.6-25.9C757.2,100.9,748.3,97.5,737.6,97.5z"/>
	<path class="st4" d="M844.3,78.2v25.2l1.2-1.9C856,84.5,866.5,76,877,76c8.2,0,16.7,4.1,25.6,12.4l-11.4,19.1
		c-7.6-7.2-14.5-10.7-21-10.7c-7,0-13.1,3.3-18.2,10c-5.1,6.7-7.7,14.6-7.7,23.7v57.4h-21.8V78.2H844.3z"/>
	<path class="st4" d="M917.8,21.3h21.7v166.6h-21.7V21.3z M989.2,78.2h25.8l-46.8,53.6l56.3,56h-29.1l-55-56L989.2,78.2z"/>
	<path class="st4" d="M1038,21.3h88.8v21.2h-65V89h65v21.2h-65v77.6H1038V21.3z"/>
	<path class="st4" d="M1149.8,21.3h21.7v166.6h-21.7V21.3z"/>
	<path class="st4" d="M1255.4,77.9c16.7,0,30.6,5.4,41.6,16.2c11.1,10.8,16.6,24.3,16.6,40.6c0,15.8-5.6,29-16.8,39.4
		c-11.2,10.5-25.3,15.7-42.3,15.7c-16.5,0-30.2-5.3-41.3-15.9c-11.1-10.6-16.6-23.9-16.6-39.8c0-16.1,5.6-29.4,16.8-40.1
		C1224.5,83.3,1238.5,77.9,1255.4,77.9z M1254.2,97.5c-10.4,0-19,3.4-25.6,10.2c-6.7,6.8-10,15.5-10,26.1c0,10.5,3.4,19.1,10.2,25.7
		s15.6,9.9,26.3,9.9c10.7,0,19.4-3.4,26.2-10.1c6.8-6.7,10.2-15.3,10.2-25.8c0-10.4-3.5-19-10.6-25.9
		C1273.8,100.9,1264.9,97.5,1254.2,97.5z"/>
	<path class="st4" d="M1472.4,78.2h23.3l-48.5,111.6h-6.9l-32.4-76.4l-32,76.4h-7l-48.9-111.6h23.3l28.7,66.5l28-66.5h16.1
		l27.7,66.5L1472.4,78.2z"/>
</g>
</svg>
