<?xml version="1.0" encoding="utf-8"?>
<!-- Generator: Adobe Illustrator 27.4.1, SVG Export Plug-In . SVG Version: 6.00 Build 0)  -->
<svg version="1.1" id="Layer_1" xmlns="http://www.w3.org/2000/svg" xmlns:xlink="http://www.w3.org/1999/xlink" x="0px" y="0px"
	 viewBox="0 0 1500 210.98" style="enable-background:new 0 0 1500 210.98;" xml:space="preserve">
<style type="text/css">
	.st0{fill:#D8D8D8;}
	.st1{fill:url(#SVGID_1_);}
	.st2{fill:url(#SVGID_00000039123827124628083980000009049992842735871917_);}
	.st3{fill:url(#SVGID_00000053509548404045267750000017664974922674213536_);}
	.st4{fill:#404147;}
</style>
<path class="st0" d="M342.28,1.67h2.97c0,0,17.42,12.7,28.89,51.93c12.49,42.73,18.54,51.93,18.54,51.93h-60.75h-2.97
	c0,0-7.07-12.7-18.54-51.93c-12.49-42.73-28.89-51.93-28.89-51.93H342.28z"/>
<path class="st0" d="M111.26,1.67h2.97c0,0,17.42,25.41,28.89,103.87c12.49,85.45,28.89,103.87,28.89,103.87h-60.75h-2.97
	c0,0-17.42-25.41-28.89-103.87C66.92,20.08,50.52,1.67,50.52,1.67H111.26z"/>
<path class="st0" d="M226.71,1.67h2.97c0,0,17.42,25.41,28.89,103.87c12.49,85.45,28.89,103.87,28.89,103.87h-60.75h-2.97
	c0,0-17.42-25.41-28.89-103.87C182.37,20.08,165.96,1.67,165.96,1.67H226.71z"/>
<linearGradient id="SVGID_1_" gradientUnits="userSpaceOnUse" x1="249.6884" y1="-31.3144" x2="104.9777" y2="214.2194">
	<stop  offset="0.1955" style="stop-color:#3971F1"/>
	<stop  offset="0.3881" style="stop-color:#695EF6"/>
	<stop  offset="0.5696" style="stop-color:#8E4FFA"/>
	<stop  offset="0.7371" style="stop-color:#A945FD"/>
	<stop  offset="0.8857" style="stop-color:#B93EFE"/>
</linearGradient>
<path class="st1" d="M169.03,1.67h-2.97c0,0-17.42,25.41-28.89,103.87c-12.49,85.45-28.89,103.87-28.89,103.87h60.75H172
	c0,0,17.42-25.41,28.89-103.87C213.38,20.08,229.78,1.67,229.78,1.67H169.03z"/>
<linearGradient id="SVGID_00000072262609221539336180000001913959596291213991_" gradientUnits="userSpaceOnUse" x1="357.5598" y1="-18.4848" x2="198.9154" y2="250.6906">
	<stop  offset="0.1457" style="stop-color:#3971F1"/>
	<stop  offset="0.3881" style="stop-color:#695EF6"/>
	<stop  offset="0.5696" style="stop-color:#8E4FFA"/>
	<stop  offset="0.7371" style="stop-color:#A945FD"/>
	<stop  offset="0.8857" style="stop-color:#B93EFE"/>
</linearGradient>
<path style="fill:url(#SVGID_00000072262609221539336180000001913959596291213991_);" d="M284.47,1.67h-2.97
	c0,0-17.42,25.41-28.89,103.87c-12.49,85.45-28.89,103.87-28.89,103.87h60.75h2.97c0,0,17.42-25.41,28.89-103.87
	C328.81,20.08,345.22,1.67,345.22,1.67H284.47z"/>
<linearGradient id="SVGID_00000023981274098179709770000004128883527557114288_" gradientUnits="userSpaceOnUse" x1="125.4942" y1="-62.5414" x2="-19.5468" y2="183.5528">
	<stop  offset="0" style="stop-color:#0088EB"/>
	<stop  offset="0.1955" style="stop-color:#3971F1"/>
	<stop  offset="0.3881" style="stop-color:#695EF6"/>
	<stop  offset="0.5696" style="stop-color:#8E4FFA"/>
	<stop  offset="0.7371" style="stop-color:#A945FD"/>
	<stop  offset="0.8857" style="stop-color:#B93EFE"/>
</linearGradient>
<path style="fill:url(#SVGID_00000023981274098179709770000004128883527557114288_);" d="M53.84,1.67h-2.97
	c0,0-17.42,12.7-28.89,51.93C9.5,96.33,3.44,105.53,3.44,105.53h60.75h2.97c0,0,7.07-12.7,18.54-51.93
	c12.49-42.73,28.89-51.93,28.89-51.93H53.84z"/>
<g>
	<path class="st4" d="M668.98,21.29h23.78l-67.35,167.3h-5.24L565.71,53.12l-55.03,135.46h-5.12l-67.15-167.3h24.03l45.9,114.83
		l46.21-114.83h22.54l46.43,114.83L668.98,21.29z"/>
	<path class="st4" d="M738.8,77.93c16.7,0,30.56,5.39,41.62,16.16c11.05,10.77,16.57,24.31,16.57,40.61
		c0,15.82-5.61,28.96-16.81,39.41c-11.21,10.46-25.32,15.68-42.33,15.68c-16.46,0-30.21-5.31-41.26-15.92
		c-11.05-10.61-16.57-23.86-16.57-39.77c0-16.05,5.58-29.44,16.75-40.13C707.93,83.27,721.94,77.93,738.8,77.93z M737.6,97.48
		c-10.41,0-18.96,3.42-25.64,10.25c-6.67,6.84-10.01,15.54-10.01,26.11c0,10.49,3.42,19.06,10.25,25.7
		c6.83,6.64,15.62,9.95,26.35,9.95c10.65,0,19.38-3.36,26.17-10.08s10.19-15.32,10.19-25.81c0-10.41-3.54-19.04-10.61-25.87
		C757.24,100.9,748.33,97.48,737.6,97.48z"/>
	<path class="st4" d="M844.33,78.16v25.16l1.19-1.9c10.49-16.94,20.99-25.4,31.48-25.4c8.19,0,16.73,4.13,25.64,12.4l-11.44,19.08
		c-7.56-7.16-14.55-10.73-20.99-10.73c-7,0-13.06,3.34-18.19,10.01c-5.12,6.67-7.69,14.59-7.69,23.73v57.36h-21.82V78.16H844.33z"/>
	<path class="st4" d="M917.78,21.29h21.7v166.58h-21.7V21.29z M989.2,78.16h25.77l-46.81,53.65l56.35,56.04h-29.12l-54.96-55.99
		L989.2,78.16z"/>
	<path class="st4" d="M1037.98,21.29h88.84v21.23h-64.99v46.5h64.99v21.23h-64.99v77.63h-23.85V21.29z"/>
	<path class="st4" d="M1149.83,21.29h21.7v166.58h-21.7V21.29z"/>
	<path class="st4" d="M1255.37,77.93c16.7,0,30.56,5.39,41.62,16.16c11.05,10.77,16.57,24.31,16.57,40.61
		c0,15.82-5.61,28.96-16.81,39.41c-11.2,10.46-25.32,15.68-42.33,15.68c-16.46,0-30.21-5.31-41.26-15.92
		c-11.06-10.61-16.57-23.86-16.57-39.77c0-16.05,5.59-29.44,16.76-40.13C1224.5,83.27,1238.51,77.93,1255.37,77.93z M1254.18,97.48
		c-10.42,0-18.96,3.42-25.64,10.25c-6.68,6.84-10.01,15.54-10.01,26.11c0,10.49,3.42,19.06,10.25,25.7
		c6.83,6.64,15.62,9.95,26.35,9.95c10.65,0,19.38-3.36,26.17-10.08c6.8-6.72,10.19-15.32,10.19-25.81
		c0-10.41-3.54-19.04-10.61-25.87C1273.81,100.9,1264.9,97.48,1254.18,97.48z"/>
	<path class="st4" d="M1472.38,78.16h23.27l-48.46,111.62h-6.93l-32.43-76.43l-32.04,76.43h-7.04l-48.86-111.62h23.31l28.74,66.54
		l28.02-66.54h16.09l27.67,66.54L1472.38,78.16z"/>
</g>
</svg>
